<svg xmlns="http://www.w3.org/2000/svg" width="201.572" height="36" viewBox="0 0 201.572 36"><defs><style>.a{fill:#ea3659;}.a,.b{font-size:36px;}.a,.b,.c{font-family:Couture-Bold, Couture;font-weight:700;}.b,.c,.d{fill:#333;}.c{font-size:35px;}</style></defs><g transform="translate(-121.472 -117.9)"><text class="a" transform="translate(191.045 149.9)"><tspan x="0" y="0">tracK</tspan></text><text class="b" transform="translate(121.472 149.9)"><tspan x="0" y="0">F</tspan></text><text class="c" transform="translate(185.219 148.9)"><tspan x="0" y="0">t</tspan></text><g transform="translate(147.383 132.533)"><path class="d" d="M933.195,765.461V755.137a1.7,1.7,0,0,0-2.094-1.659c-4.01.966-8.1,2.545-8.1,6.813s4.091,5.83,8.1,6.813a1.7,1.7,0,0,0,2.094-1.643Z" transform="translate(-923 -751.392)"/><path class="d" d="M1031.3,749.646a7.528,7.528,0,0,0-2.625-5.8c-3.141-2.77-8.616-3.688-16.3-2.738-1.288.161-2.4.306-3.431.451a1.684,1.684,0,0,0-1.449,1.675v12.788a1.684,1.684,0,0,0,1.449,1.675c1.031.145,2.158.29,3.431.451h0c7.666.966,13.158.032,16.3-2.738a7.39,7.39,0,0,0,2.625-5.766Z" transform="translate(-993.891 -740.748)"/></g></g></svg>