<svg xmlns="http://www.w3.org/2000/svg" width="201.414" height="37" viewBox="0 0 201.414 37"><defs><style>.a{fill:#ea3659;}.a,.b{font-size:37px;font-family:Couture-Bold, Couture;font-weight:700;}.b,.c{fill:#fff;}</style></defs><g transform="translate(-121.472 -117.9)"><text class="a" transform="translate(187.886 150.9)"><tspan x="0" y="0">tracK</tspan></text><text class="b" transform="translate(121.472 150.9)"><tspan x="0" y="0">F</tspan></text><text class="b" transform="translate(182.325 150.9)"><tspan x="0" y="0">t</tspan></text><g transform="translate(146.207 131.869)"><path class="c" d="M932.732,764.915V755.06a1.624,1.624,0,0,0-2-1.584c-3.828.922-7.733,2.429-7.733,6.5s3.905,5.566,7.733,6.5a1.624,1.624,0,0,0,2-1.568Z" transform="translate(-923 -751.485)"/><path class="c" d="M1030.223,749.242a7.186,7.186,0,0,0-2.506-5.535c-3-2.644-8.225-3.521-15.559-2.614-1.23.154-2.291.292-3.275.43a1.608,1.608,0,0,0-1.384,1.6v12.207a1.608,1.608,0,0,0,1.384,1.6c.984.138,2.06.277,3.275.43h0c7.318.922,12.561.031,15.559-2.614a7.055,7.055,0,0,0,2.506-5.5Z" transform="translate(-994.509 -740.748)"/></g></g></svg>